<svg width="12" height="10" viewBox="0 0 12 10" fill="none" xmlns="http://www.w3.org/2000/svg">
<path d="M6.06 8.47411L6 8.52861L5.934 8.47411C3.084 6.12534 1.2 4.57221 1.2 2.99728C1.2 1.90736 2.1 1.08992 3.3 1.08992C4.224 1.08992 5.124 1.63488 5.442 2.37602H6.558C6.876 1.63488 7.776 1.08992 8.7 1.08992C9.9 1.08992 10.8 1.90736 10.8 2.99728C10.8 4.57221 8.916 6.12534 6.06 8.47411ZM8.7 0C7.656 0 6.654 0.441417 6 1.13352C5.346 0.441417 4.344 0 3.3 0C1.452 0 0 1.31335 0 2.99728C0 5.05177 2.04 6.7357 5.13 9.28065L6 10L6.87 9.28065C9.96 6.7357 12 5.05177 12 2.99728C12 1.31335 10.548 0 8.7 0Z" fill="#A6A6A6"/>
</svg>
